<svg xmlns="http://www.w3.org/2000/svg" viewBox="0 0 56 46">
  <path fill="url(#mike-a)" d="M13.125 33.894v-1.05h1.64a1.64 1.64 0 1 0 0-3.281h-1.64V24.64a1.64 1.64 0 0 0-1.64-1.64H4.921a1.64 1.64 0 0 0-1.64 1.64v8.498c0 4.274 1.67 8.32 4.743 11.428 1.972 1.87 4.947 1.87 6.918 0l.03-.03c1.917-1.915 1.917-5.033.015-6.933-1.236-1.267-1.863-2.515-1.863-3.71zM41.748.163c-.623-.263-1.312-.131-1.771.36l-.558.559C33.808 6.66 26.064 9.875 18.156 9.875l-3.39 8.203 3.39 8.204c7.908 0 15.652 3.215 21.263 8.793l.558.558c.482.537 1.295.6 1.771.361a1.636 1.636 0 0 0 1.018-1.51V1.673c0-.656-.394-1.247-1.018-1.51z"/>
  <path fill="url(#mike-b)" d="M0 14.797v9.844c0 .919.722 1.64 1.64 1.64h16.516V9.876H4.922A4.915 4.915 0 0 0 0 14.797zm54.36 1.641h-3.282a1.64 1.64 0 1 0 0 3.281h3.281a1.64 1.64 0 1 0 0-3.281zm-4.22-3.5 2.841-1.641a1.64 1.64 0 1 0-1.64-2.843l-2.842 1.641a1.64 1.64 0 1 0 1.64 2.842zm2.84 11.922-2.84-1.64a1.64 1.64 0 1 0-1.64 2.842l2.842 1.64a1.64 1.64 0 1 0 1.64-2.842z"/>
  <defs>
    <linearGradient id="mike-a" x1="11.5" x2="51.5" y1="56" y2="-17" gradientUnits="userSpaceOnUse">
      <stop stop-color="#FFBEF9"/>
      <stop offset="1" stop-color="#FFF1FF"/>
    </linearGradient>
    <linearGradient id="mike-b" x1="28" x2="28" y1="27.922" y2="8.233" gradientUnits="userSpaceOnUse">
      <stop stop-color="#A93AFF"/>
      <stop offset="1" stop-color="#FF81FF"/>
    </linearGradient>
  </defs>
</svg>