<svg xmlns="http://www.w3.org/2000/svg" viewBox="0 0 56 56">
  <path fill="url(#rocket-a)" d="m21.23 16.85-1.687-1.016c-1.223-.735-2.69-1.123-4.244-1.123-2.358 0-4.585.875-6.11 2.401L3 23.3a1.75 1.75 0 0 0 1.238 2.987h.006l9.761-.036c.453-.002.888-.18 1.214-.496l6.325-6.15a1.75 1.75 0 0 0-.316-2.753z"/>
  <path fill="url(#rocket-b)" d="m40.163 36.45-1.015-1.68a1.747 1.747 0 0 0-1.299-.835 1.738 1.738 0 0 0-1.454.518l-6.15 6.327c-.315.324-.493.76-.495 1.213l-.037 9.76a1.749 1.749 0 0 0 2.987 1.244l6.188-6.186c2.625-2.625 3.186-7.173 1.275-10.36z"/>
  <path fill="url(#rocket-c)" d="M54.244 3.366a1.75 1.75 0 0 0-1.61-1.612 49.153 49.153 0 0 0-3.468-.106c-5.459 0-15.338.723-20.179 5.563L12.9 23.298a5.257 5.257 0 0 0 0 7.425l12.374 12.373a5.21 5.21 0 0 0 3.712 1.533 5.21 5.21 0 0 0 3.713-1.533L48.786 27.01c6.68-6.679 5.511-22.955 5.458-23.644z"/>
  <path fill="url(#rocket-d)" d="M40.496 2.292c3.307-.525 6.545-.646 8.68-.646 2.064 0 3.395.104 3.465.104a1.76 1.76 0 0 1 1.61 1.61c.017.244.437 6.055-.543 12.145L40.496 2.292z"/>
  <path fill="url(#rocket-e)" d="M35.175 27.823a6.95 6.95 0 0 1-4.95-2.05 6.952 6.952 0 0 1-2.05-4.95c0-1.87.729-3.628 2.05-4.949 2.643-2.647 7.255-2.647 9.9 0a6.952 6.952 0 0 1 2.05 4.95 6.95 6.95 0 0 1-2.05 4.948 6.951 6.951 0 0 1-4.95 2.051z"/>
  <path fill="url(#rocket-f)" d="M35.176 17.324c-.936 0-1.814.364-2.476 1.026a3.479 3.479 0 0 0-1.024 2.474c0 .935.364 1.813 1.024 2.475 1.324 1.323 3.628 1.323 4.95 0a3.479 3.479 0 0 0 1.025-2.475c0-.935-.364-1.813-1.025-2.474a3.476 3.476 0 0 0-2.474-1.026z"/>
  <path fill="url(#rocket-g)" d="M3.5 54.25a1.75 1.75 0 0 1-1.75-1.75c0-18.71 7.854-19.25 8.75-19.25.464 0 .91.185 1.237.513l10.5 10.5c.328.328.513.772.513 1.237 0 .265-.08 2.654-2.844 4.867-3.221 2.576-8.74 3.883-16.406 3.883z"/>
  <path fill="url(#rocket-h)" d="M10.5 47.25a1.75 1.75 0 0 1-1.237-2.987l3.5-3.5a1.75 1.75 0 1 1 2.474 2.474l-3.5 3.5c-.341.342-.79.513-1.237.513z"/>
  <defs>
    <linearGradient id="rocket-a" x1="2.488" x2="22.076" y1="20.498" y2="20.498" gradientUnits="userSpaceOnUse">
      <stop stop-color="#42A5F5"/>
      <stop offset="1" stop-color="#1E88E5"/>
    </linearGradient>
    <linearGradient id="rocket-b" x1="29.714" x2="41.295" y1="43.715" y2="43.715" gradientUnits="userSpaceOnUse">
      <stop stop-color="#42A5F5"/>
      <stop offset="1" stop-color="#1E88E5"/>
    </linearGradient>
    <linearGradient id="rocket-c" x1="11.366" x2="54.354" y1="23.14" y2="23.14" gradientUnits="userSpaceOnUse">
      <stop stop-color="#BBDEFB"/>
      <stop offset="1" stop-color="#64B5F6"/>
    </linearGradient>
    <linearGradient id="rocket-d" x1="40.496" x2="54.356" y1="8.575" y2="8.575" gradientUnits="userSpaceOnUse">
      <stop stop-color="#42A5F5"/>
      <stop offset="1" stop-color="#1E88E5"/>
    </linearGradient>
    <linearGradient id="rocket-e" x1="28.176" x2="42.176" y1="20.856" y2="20.856" gradientUnits="userSpaceOnUse">
      <stop stop-color="#42A5F5"/>
      <stop offset="1" stop-color="#1E88E5"/>
    </linearGradient>
    <linearGradient id="rocket-f" x1="31.676" x2="38.676" y1="20.809" y2="20.809" gradientUnits="userSpaceOnUse">
      <stop stop-color="#BBDEFB"/>
      <stop offset="1" stop-color="#64B5F6"/>
    </linearGradient>
    <linearGradient id="rocket-g" x1="1.75" x2="22.75" y1="43.75" y2="43.75" gradientUnits="userSpaceOnUse">
      <stop stop-color="#BBDEFB"/>
      <stop offset="1" stop-color="#64B5F6"/>
    </linearGradient>
    <linearGradient id="rocket-h" x1="8.75" x2="15.75" y1="43.75" y2="43.75" gradientUnits="userSpaceOnUse">
      <stop stop-color="#42A5F5"/>
      <stop offset="1" stop-color="#1E88E5"/>
    </linearGradient>
  </defs>
</svg>