<svg xmlns="http://www.w3.org/2000/svg" viewBox="0 0 56 56">
  <path fill="url(#settings-folder-a)" d="M51.078 3.39H4.922A4.915 4.915 0 0 0 0 8.313v9.844l28 3.282 28-9.844V8.313a4.915 4.915 0 0 0-4.922-4.922zm-6.672 21.33h-6.562A6.573 6.573 0 0 0 32.163 28h-8.325a6.573 6.573 0 0 0-5.682-3.281h-6.562A6.57 6.57 0 0 0 5.03 31.28v6.563a6.57 6.57 0 0 0 6.563 6.562h6.562a6.573 6.573 0 0 0 5.682-3.281h8.325a6.573 6.573 0 0 0 5.68 3.281h6.563a6.57 6.57 0 0 0 6.563-6.562V31.28a6.57 6.57 0 0 0-6.563-6.562z"/>
  <path fill="url(#settings-folder-b)" d="M31.281 11.594A3.29 3.29 0 0 0 28 14.875a3.29 3.29 0 0 1-3.281 3.281H0v29.532a4.915 4.915 0 0 0 4.922 4.921h46.156A4.915 4.915 0 0 0 56 47.687V11.594H31.281zm18.047 21.328h-8.203a1.64 1.64 0 1 0 0 3.281h8.203v1.64a4.927 4.927 0 0 1-4.922 4.923h-6.562a4.932 4.932 0 0 1-4.642-3.282H22.798a4.932 4.932 0 0 1-4.642 3.282h-6.562a4.927 4.927 0 0 1-4.922-4.922v-1.64h8.203a1.64 1.64 0 1 0 0-3.282H6.672v-1.64a4.927 4.927 0 0 1 4.922-4.923h6.562a4.932 4.932 0 0 1 4.642 3.282h10.404a4.932 4.932 0 0 1 4.642-3.282h6.562a4.927 4.927 0 0 1 4.922 4.922v1.64zM8.312 13.234a1.64 1.64 0 1 0 0-3.281 1.64 1.64 0 0 0 0 3.281zm6.563 0a1.64 1.64 0 1 0 0-3.28 1.64 1.64 0 0 0 0 3.28zm6.563 0a1.64 1.64 0 1 0 0-3.28 1.64 1.64 0 0 0 0 3.28z"/>
  <defs>
    <linearGradient id="settings-folder-a" x1="28" x2="28" y1="44.406" y2="3.391" gradientUnits="userSpaceOnUse">
      <stop stop-color="#FFC2CC"/>
      <stop offset="1" stop-color="#FFF2F4"/>
    </linearGradient>
    <linearGradient id="settings-folder-b" x1="28" x2="28" y1="52.609" y2="9.953" gradientUnits="userSpaceOnUse">
      <stop stop-color="#FD3A84"/>
      <stop offset="1" stop-color="#FFA68D"/>
    </linearGradient>
  </defs>
</svg>